# xmcd CD database file
#
# Track frame offsets:
#	210
#	14252
#	31399
#
# Disc length: 603 seconds
#
# Revision: 0
# Processed by: cddbd v1.5.2PL0 Copyright (c) Steve Scherf et al.
# Submitted via: CDex 1.51
#
DISCID=19025903
DTITLE=ROBERTO and THE CARIBBEAN NIGHTSHOW - BANG BANG LULU - ROBERTO and THE CARIBBEAN NIGHTSHOW [CDS)
DYEAR=2000
DGENRE=SOCA
TTITLE0=BANG BANG LULU
TTITLE1=CARNAVAL PARTY
TTITLE2=BANG BANG LULU [KARAOKE]
EXTD=YEAR: 2000
EXTT0=
EXTT1=
EXTT2=
PLAYORDER=
